/* XPM */
static char * moldeodirector_xpm[] = {
"32 32 411 2",
"  	c None",
". 	c #00001E",
"+ 	c #00001A",
"@ 	c #000015",
"# 	c #00000D",
"$ 	c #00000B",
"% 	c #000021",
"& 	c #000034",
"* 	c #00003E",
"= 	c #000142",
"- 	c #000246",
"; 	c #000145",
"> 	c #000041",
", 	c #00003D",
"' 	c #000032",
") 	c #000029",
"! 	c #00001C",
"~ 	c #00000F",
"{ 	c #000000",
"] 	c #000036",
"^ 	c #00034B",
"/ 	c #000655",
"( 	c #00095C",
"_ 	c #000C5E",
": 	c #000A5D",
"< 	c #000859",
"[ 	c #000554",
"} 	c #00024C",
"| 	c #000042",
"1 	c #000035",
"2 	c #000004",
"3 	c #000033",
"4 	c #00094F",
"5 	c #001161",
"6 	c #00136A",
"7 	c #000F6B",
"8 	c #00136E",
"9 	c #00136F",
"0 	c #00116E",
"a 	c #001269",
"b 	c #001066",
"c 	c #000C62",
"d 	c #00095B",
"e 	c #000553",
"f 	c #000048",
"g 	c #00003C",
"h 	c #00002E",
"i 	c #00001F",
"j 	c #00000A",
"k 	c #000039",
"l 	c #000D5E",
"m 	c #00186F",
"n 	c #001E78",
"o 	c #002283",
"p 	c #001A81",
"q 	c #001A7E",
"r 	c #00197E",
"s 	c #00187D",
"t 	c #00197A",
"u 	c #001576",
"v 	c #00146F",
"w 	c #000F68",
"x 	c #000B5F",
"y 	c #000654",
"z 	c #00004B",
"A 	c #00002F",
"B 	c #000008",
"C 	c #00227A",
"D 	c #002D89",
"E 	c #002F8E",
"F 	c #002C91",
"G 	c #00278F",
"H 	c #001C8A",
"I 	c #001D89",
"J 	c #001D85",
"K 	c #001C81",
"L 	c #00197C",
"M 	c #001779",
"N 	c #001471",
"O 	c #000E68",
"P 	c #000A5F",
"Q 	c #000557",
"R 	c #000049",
"S 	c #00003A",
"T 	c #00002D",
"U 	c #000019",
"V 	c #000005",
"W 	c #000037",
"X 	c #00247C",
"Y 	c #00328E",
"Z 	c #003496",
"` 	c #003FA3",
" .	c #0240A8",
"..	c #00329F",
"+.	c #002290",
"@.	c #00208C",
"#.	c #001E8E",
"$.	c #001C8C",
"%.	c #001B84",
"&.	c #00177E",
"*.	c #001478",
"=.	c #00116F",
"-.	c #000B66",
";.	c #00085B",
">.	c #000251",
",.	c #000044",
"'.	c #000025",
").	c #000012",
"!.	c #000451",
"~.	c #001B72",
"{.	c #002B8D",
"].	c #0B3EA1",
"^.	c #0B41A8",
"/.	c #0E49B0",
"(.	c #1F56BA",
"_.	c #033FB1",
":.	c #002495",
"<.	c #00208F",
"[.	c #001F8B",
"}.	c #001E88",
"|.	c #001B83",
"1.	c #001880",
"2.	c #001378",
"3.	c #000F71",
"4.	c #000C69",
"5.	c #000860",
"6.	c #000452",
"7.	c #00004A",
"8.	c #00002A",
"9.	c #000007",
"0.	c #000D64",
"a.	c #052A86",
"b.	c #7A96CA",
"c.	c #ECF2FE",
"d.	c #D1DEF7",
"e.	c #819EE4",
"f.	c #4472D3",
"g.	c #1450C2",
"h.	c #002A9B",
"i.	c #002692",
"j.	c #002691",
"k.	c #00248C",
"l.	c #001F85",
"m.	c #001A80",
"n.	c #001777",
"o.	c #000D65",
"p.	c #00095D",
"q.	c #000453",
"r.	c #00003B",
"s.	c #293856",
"t.	c #000954",
"u.	c #000F6F",
"v.	c #9CACD4",
"w.	c #DAE2F7",
"x.	c #93ADDE",
"y.	c #F4F8FD",
"z.	c #FEFEFE",
"A.	c #9FB7F4",
"B.	c #2663CF",
"C.	c #003BAC",
"D.	c #0035A1",
"E.	c #0035A5",
"F.	c #00309E",
"G.	c #002791",
"H.	c #001271",
"I.	c #000C66",
"J.	c #000761",
"K.	c #000356",
"L.	c #00003F",
"M.	c #000023",
"N.	c #000001",
"O.	c #000540",
"P.	c #3F5B95",
"Q.	c #879AC4",
"R.	c #B8C9E0",
"S.	c #0F45AA",
"T.	c #0037A9",
"U.	c #4979D0",
"V.	c #FFFFFF",
"W.	c #F8FAFF",
"X.	c #578EF1",
"Y.	c #0459D0",
"Z.	c #0358C2",
"`.	c #035CC5",
" +	c #0150B4",
".+	c #003C9F",
"++	c #002A8A",
"@+	c #001C7A",
"#+	c #000D69",
"$+	c #00065F",
"%+	c #000047",
"&+	c #000030",
"*+	c #000011",
"=+	c #223C89",
"-+	c #3A62A9",
";+	c #043398",
">+	c #00309D",
",+	c #0035AB",
"'+	c #0244BF",
")+	c #D4E0FC",
"!+	c #BBD7FF",
"~+	c #2E8DFA",
"{+	c #338FF5",
"]+	c #3493F7",
"^+	c #207EE5",
"/+	c #0459BE",
"(+	c #00369A",
"_+	c #001F7D",
":+	c #001C80",
"<+	c #6C83B8",
"[+	c #274089",
"}+	c #00004F",
"|+	c #000022",
"1+	c #000014",
"2+	c #000002",
"3+	c #000B60",
"4+	c #001B7F",
"5+	c #002895",
"6+	c #002A9F",
"7+	c #0030A6",
"8+	c #0043B1",
"9+	c #91AEF1",
"0+	c #F4FBFF",
"a+	c #79D0FE",
"b+	c #6ECCFF",
"c+	c #74CEFE",
"d+	c #56ADFE",
"e+	c #2377DC",
"f+	c #0049A9",
"g+	c #043299",
"h+	c #8CA6D5",
"i+	c #FFFFF6",
"j+	c #A0AAC6",
"k+	c #000354",
"l+	c #000003",
"m+	c #001981",
"n+	c #00248D",
"o+	c #0034AB",
"p+	c #5589E6",
"q+	c #FAFBFF",
"r+	c #FFFFFE",
"s+	c #CDFBFF",
"t+	c #91F7FF",
"u+	c #96F1FF",
"v+	c #71C8FF",
"w+	c #3388E9",
"x+	c #0B5FC5",
"y+	c #B7CBEA",
"z+	c #F8F9F2",
"A+	c #8793B5",
"B+	c #00004E",
"C+	c #000043",
"D+	c #000038",
"E+	c #00002C",
"F+	c #00085E",
"G+	c #00167B",
"H+	c #00197D",
"I+	c #001A7F",
"J+	c #002B9A",
"K+	c #2263D2",
"L+	c #E6EEFC",
"M+	c #FEFEFF",
"N+	c #FFFEFE",
"O+	c #C2FFFF",
"P+	c #9AFAFF",
"Q+	c #75D2FE",
"R+	c #61ABFC",
"S+	c #C7DAFF",
"T+	c #DCE2F0",
"U+	c #FAF7F2",
"V+	c #6573A3",
"W+	c #000046",
"X+	c #040E54",
"Y+	c #00033E",
"Z+	c #00001D",
"`+	c #00000E",
" @	c #000017",
".@	c #000657",
"+@	c #000E67",
"@@	c #00126F",
"#@	c #00106D",
"$@	c #001372",
"%@	c #001E84",
"&@	c #0540B4",
"*@	c #B0CBF7",
"=@	c #FFFEFF",
"-@	c #F9FEFF",
";@	c #E5FDFE",
">@	c #E2F8FE",
",@	c #7E9BCE",
"'@	c #6684BC",
")@	c #FFFCF5",
"!@	c #354985",
"~@	c #0E1655",
"{@	c #737990",
"]@	c #3B4669",
"^@	c #000125",
"/@	c #00004C",
"(@	c #00075C",
"_@	c #000861",
":@	c #00055E",
"<@	c #000862",
"[@	c #00106B",
"}@	c #4879DB",
"|@	c #D5E0F3",
"1@	c #09227D",
"2@	c #778BBB",
"3@	c #FBFAEA",
"4@	c #091A67",
"5@	c #4F628B",
"6@	c #A0A09A",
"7@	c #7F8283",
"8@	c #0F143A",
"9@	c #000027",
"0@	c #000150",
"a@	c #000154",
"b@	c #00055A",
"c@	c #00065E",
"d@	c #001371",
"e@	c #0034A0",
"f@	c #AAC4F0",
"g@	c #DDE8FC",
"h@	c #214CA1",
"i@	c #000051",
"j@	c #93A7C5",
"k@	c #E8EAE1",
"l@	c #00004D",
"m@	c #020F4E",
"n@	c #AEAFAA",
"o@	c #969994",
"p@	c #81807C",
"q@	c #2F3953",
"r@	c #000040",
"s@	c #000250",
"t@	c #000355",
"u@	c #00055C",
"v@	c #001578",
"w@	c #2A5FBB",
"x@	c #DFE5F8",
"y@	c #F1F4FC",
"z@	c #E7ECF9",
"A@	c #AFC3E7",
"B@	c #1A49A4",
"C@	c #000659",
"D@	c #AFC0D4",
"E@	c #D8DCD8",
"F@	c #68738A",
"G@	c #9F9D9D",
"H@	c #4F5973",
"I@	c #777875",
"J@	c #505559",
"K@	c #000045",
"L@	c #00014F",
"M@	c #000258",
"N@	c #011C7D",
"O@	c #3864BA",
"P@	c #4E77C2",
"Q@	c #2C5BB2",
"R@	c #07308F",
"S@	c #B9C7D1",
"T@	c #CCCDCC",
"U@	c #02135B",
"V@	c #92959A",
"W@	c #767883",
"X@	c #000134",
"Y@	c #595E68",
"Z@	c #575654",
"`@	c #080C1D",
" #	c #000352",
".#	c #001E81",
"+#	c #001573",
"@#	c #000357",
"##	c #B7C0C9",
"$#	c #BDBBBA",
"%#	c #485980",
"&#	c #A2A29B",
"*#	c #2C3952",
"=#	c #333C51",
"-#	c #494845",
";#	c #171820",
">#	c #00024A",
",#	c #000454",
"'#	c #000031",
")#	c #A3ADB7",
"!#	c #ACABA7",
"~#	c #989999",
"{#	c #767F88",
"]#	c #000016",
"^#	c #181F38",
"/#	c #383838",
"(#	c #161717",
"_#	c #000010",
":#	c #000024",
"<#	c #000026",
"[#	c #788597",
"}#	c #9FA09C",
"|#	c #808283",
"1#	c #121937",
"2#	c #07081E",
"3#	c #232325",
"4#	c #090A07",
"5#	c #00000C",
"6#	c #00002B",
"7#	c #000028",
"8#	c #111742",
"9#	c #2C3355",
"0#	c #111230",
"a#	c #000006",
"b#	c #07080B",
"c#	c #000009",
"d#	c #00001B",
"                          . + + @ # $                           ",
"                  % & * = - ; > , ' ) ! ~ { {                   ",
"                ] ^ / ( _ _ : < [ } | 1 ) + 2 {                 ",
"            3 4 5 6 7 8 9 0 a b c d e f g h i j { {             ",
"          k l m n o p q r s t u v w x y z g A i B { {           ",
"        k l C D E F G H I J K L M N O P Q R S T U V { {         ",
"      W _ X Y Z `  ...+.@.#.$.%.&.*.=.-.;.>.,.1 '.).{ { {       ",
"      !.~.{.].^./.(._.:.<.[.}.|.1.2.3.4.5.6.7.S 8.! 9.{ {       ",
"    S 0.a.b.c.d.e.f.g.h.i.j.k.l.m.n.8 o.p.q.7.r.h . # { { {     ",
"  s.t.u.v.w.x.y.z.A.B.C.D.E.F.G.J M H.I.J.K.z L.A M.).N.{ { {   ",
"  O.P.Q.R.S.T.U.V.W.X.Y.Z.`. +.+++@+=.#+$+e %+S &+M.*+N.{ { {   ",
"  , =+-+;+>+,+'+)+V.!+~+{+]+^+/+(+_+:+<+[+}+%+r.&+|+1+2+{ { {   ",
"  | 3+4+5+6+7+8+9+V.0+a+b+c+d+e+f+g+h+i+j+k+%+S A M.1+l+{ { {   ",
". L.3+m+n+@.:.o+p+q+r+s+t+u+v+w+x+y+V.z+A+B+C+D+E+. ).N.{ { { N.",
"+ L.F+G+H+I+J J+K+L+M+N+O+P+Q+R+S+V.T+U+V+W+> X+Y+Z+`+{ { { { { ",
" @k .@+@@@#@$@%@&@*@r+=@-@;@>@0+V.,@'@)@!@* ~@{@]@^@9.{ { { { { ",
"*+&+/@(@_@:@<@[@i.}@V.z.V.V.N+r+|@1@2@3@4@] 5@6@7@8@B { { { { { ",
"j 9@, }+0@a@b@c@d@e@f@V.V.z.V.g@h@i@j@k@l@m@n@o@p@q@j { { { { { ",
"V ! & r@W+l@s@t@u@v@w@x@y@z@A@B@C@%+D@E@f F@G@H@I@J@1+{ { { { N.",
"  *+9@&+g K@z l@L@M@N@O@P@Q@R@(@C+W+S@T@U@V@W@X@Y@Z@`@{ { { {   ",
"  V + '.A W , K@%+W+ #.#o +#@#r@D+,.##$#%#&#*#*+=#-#;#{ { { {   ",
"  { $ Z+'.A 3 D+r.r.g >#,#%+k 3 '#r@)#!#~#{#]#9.^#/#(#{ { { {   ",
"  { N._#! :#E+h ' 3 ] 3 3 &+&+E+<#'#[#}#|#1#2+2+2#3#4#{ { { {   ",
"    { N.5#]#. M.<#8.6#8.8.7#9@'.% + 8#9#0#9.{ { a#b#{ { { {     ",
"      { N.c#*+]#U d#. i i . !  @1+`+$ c#{ { { { { { { { {       ",
"      { { { N.9.# _#*+_#_#*+_#$ B V { { { { { { { { { { {       ",
"        { { { { { 2+l+2 2 2 2+N.{ { { { { { { { { { { {         ",
"          { { { { { { { { { { { { { { { { { { { { { {           ",
"            { { { { { { { { { { { { { { { { { { { {             ",
"                { { { { { { { { { { { { { { { {                 ",
"                  { { { { { { { { { { { { { {                   ",
"                          { { { { { {                           "};
